<?xml version="1.0" encoding="UTF-8" standalone="no"?>
<!DOCTYPE svg PUBLIC "-//W3C//DTD SVG 1.1//EN" "http://www.w3.org/Graphics/SVG/1.1/DTD/svg11.dtd">
<svg width="100%" height="100%" viewBox="0 0 1080 1080" version="1.1" xmlns="http://www.w3.org/2000/svg" xmlns:xlink="http://www.w3.org/1999/xlink" xml:space="preserve" xmlns:serif="http://www.serif.com/" style="fill-rule:evenodd;clip-rule:evenodd;stroke-linejoin:round;stroke-miterlimit:2;">
    <rect id="chat" x="0" y="0" width="1080" height="1080" style="fill:none;"/>
    <g id="chat1" serif:id="chat">
        <g transform="matrix(9.22808,0,0,9.22808,-25930.7,-74327.4)">
            <path d="M2813.08,8167.17L2813.08,8069.67C2813.08,8066.69 2814.17,8064.14 2816.34,8062.02C2818.51,8059.89 2821.12,8058.83 2824.17,8058.83L2912.83,8058.83C2915.88,8058.83 2918.49,8059.89 2920.66,8062.02C2922.83,8064.14 2923.92,8066.69 2923.92,8069.67L2923.92,8134.67C2923.92,8137.65 2922.83,8140.2 2920.66,8142.32C2918.49,8144.44 2915.88,8145.5 2912.83,8145.5L2835.25,8145.5L2813.08,8167.17ZM2830.54,8134.67L2912.83,8134.67L2912.83,8069.67L2824.17,8069.67L2824.17,8140.76L2830.54,8134.67Z" style="fill:rgb(248,248,248);fill-rule:nonzero;"/>
        </g>
    </g>
</svg>
