<?xml version="1.0" encoding="UTF-8" standalone="no"?>
<!DOCTYPE svg PUBLIC "-//W3C//DTD SVG 1.1//EN" "http://www.w3.org/Graphics/SVG/1.1/DTD/svg11.dtd">
<svg width="100%" height="100%" viewBox="0 0 1080 1080" version="1.1" xmlns="http://www.w3.org/2000/svg" xmlns:xlink="http://www.w3.org/1999/xlink" xml:space="preserve" xmlns:serif="http://www.serif.com/" style="fill-rule:evenodd;clip-rule:evenodd;stroke-linejoin:round;stroke-miterlimit:2;">
    <g transform="matrix(1,0,0,1,0,-6)">
        <g id="Edit" transform="matrix(1,0,0,1,0,6)">
            <rect x="0" y="0" width="1080" height="1080" style="fill:none;"/>
            <g transform="matrix(0.889003,-0.879032,0.25053,0.253372,106.489,813.467)">
                <path d="M910.993,161.692L910.993,442.808C910.993,600.113 874.595,727.824 829.762,727.824L303.524,738.81L180.471,314.167L303.511,-120.277L829.762,-123.324C874.595,-123.324 910.993,4.387 910.993,161.692ZM668.856,448.603L667.513,160.723L337.459,167.638C336.772,167.638 295.492,312.609 295.492,312.609C295.492,312.609 336.197,451.548 336.884,451.548L668.856,448.603Z" style="fill:rgb(248,248,248);"/>
            </g>
            <g transform="matrix(0.927918,0,0,0.917421,37.3249,38.3869)">
                <path d="M987.884,484.498L987.884,982.754L985.758,1004.01L979.638,1023.94L969.987,1041.91L957.255,1057.52L941.825,1070.4L924.051,1080.16L904.353,1086.35L883.333,1088.5L110.667,1088.5L89.647,1086.35L69.949,1080.16L52.175,1070.4L36.745,1057.52L24.013,1041.91L14.362,1023.94L8.242,1004.01L6.116,982.754L6.116,201.246L8.242,179.986L14.362,160.063L24.013,142.085L36.745,126.479L52.175,113.602L69.949,103.84L89.647,97.65L110.667,95.499L600.472,95.499L491.841,204.501L113.884,204.501L113.884,979.499L880.116,979.499L880.116,593.567L987.884,484.498Z" style="fill:rgb(248,248,248);"/>
            </g>
        </g>
    </g>
</svg>
