<?xml version="1.0" encoding="UTF-8" standalone="no"?>
<!DOCTYPE svg PUBLIC "-//W3C//DTD SVG 1.1//EN" "http://www.w3.org/Graphics/SVG/1.1/DTD/svg11.dtd">
<svg width="100%" height="100%" viewBox="0 0 1080 1080" version="1.1" xmlns="http://www.w3.org/2000/svg" xmlns:xlink="http://www.w3.org/1999/xlink" xml:space="preserve" xmlns:serif="http://www.serif.com/" style="fill-rule:evenodd;clip-rule:evenodd;stroke-linejoin:round;stroke-miterlimit:2;">
    <g transform="matrix(1,0,0,1,-2592,0)">
        <g id="favourites" transform="matrix(1,0,0,1,2592,0)">
            <rect x="0" y="0" width="1080" height="1080" style="fill:none;"/>
            <g transform="matrix(8.68141,0,0,8.68141,-27353.5,-69901.5)">
                <path d="M3213.01,8169.12L3204.31,8161.32C3194.21,8152.22 3185.86,8144.37 3179.26,8137.77C3172.65,8131.17 3167.4,8125.24 3163.5,8119.99C3159.6,8114.74 3156.88,8109.91 3155.33,8105.51C3153.78,8101.11 3153,8096.61 3153,8092.01C3153,8082.61 3156.15,8074.75 3162.45,8068.45C3168.75,8062.15 3176.61,8059 3186.01,8059C3191.21,8059 3196.16,8060.1 3200.86,8062.3C3205.56,8064.5 3209.61,8067.6 3213.01,8071.6C3216.41,8067.6 3220.47,8064.5 3225.17,8062.3C3229.87,8060.1 3234.82,8059 3240.02,8059C3249.42,8059 3257.27,8062.15 3263.57,8068.45C3269.88,8074.75 3273.03,8082.61 3273.03,8092.01C3273.03,8096.61 3272.25,8101.11 3270.7,8105.51C3269.15,8109.91 3266.43,8114.74 3262.52,8119.99C3258.62,8125.24 3253.37,8131.17 3246.77,8137.77C3240.17,8144.37 3231.82,8152.22 3221.72,8161.32L3213.01,8169.12ZM3213.01,8152.92C3222.62,8144.32 3230.52,8136.94 3236.72,8130.79C3242.92,8124.64 3247.82,8119.29 3251.42,8114.74C3255.02,8110.19 3257.52,8106.14 3258.92,8102.58C3260.32,8099.03 3261.02,8095.51 3261.02,8092.01C3261.02,8086.01 3259.02,8081 3255.02,8077C3251.02,8073 3246.02,8071 3240.02,8071C3235.32,8071 3230.97,8072.33 3226.97,8074.98C3222.97,8077.63 3220.22,8081 3218.71,8085.11L3207.31,8085.11C3205.81,8081 3203.06,8077.63 3199.06,8074.98C3195.06,8072.33 3190.71,8071 3186.01,8071C3180.01,8071 3175,8073 3171,8077C3167,8081 3165,8086.01 3165,8092.01C3165,8095.51 3165.7,8099.03 3167.1,8102.58C3168.5,8106.14 3171,8110.19 3174.6,8114.74C3178.21,8119.29 3183.11,8124.64 3189.31,8130.79C3195.51,8136.94 3203.41,8144.32 3213.01,8152.92Z" style="fill:rgb(248,248,248);fill-rule:nonzero;"/>
            </g>
        </g>
    </g>
</svg>
