<?xml version="1.0" encoding="UTF-8" standalone="no"?>
<!DOCTYPE svg PUBLIC "-//W3C//DTD SVG 1.1//EN" "http://www.w3.org/Graphics/SVG/1.1/DTD/svg11.dtd">
<svg width="100%" height="100%" viewBox="0 0 1080 1080" version="1.1" xmlns="http://www.w3.org/2000/svg" xmlns:xlink="http://www.w3.org/1999/xlink" xml:space="preserve" xmlns:serif="http://www.serif.com/" style="fill-rule:evenodd;clip-rule:evenodd;stroke-linejoin:round;stroke-miterlimit:2;">
    <g transform="matrix(1,0,0,1,-6443,-1150)">
        <g id="heart-filled" transform="matrix(1,0,0,1,6443,1150)">
            <rect x="0" y="0" width="1080" height="1080" style="fill:none;"/>
            <g transform="matrix(8.68141,0,0,8.68141,-27353.5,-69901.5)">
                <path d="M3213.01,8169.12L3204.31,8161.32C3194.21,8152.22 3185.86,8144.37 3179.26,8137.77C3172.65,8131.17 3167.4,8125.24 3163.5,8119.99C3159.6,8114.74 3156.88,8109.91 3155.33,8105.51C3153.78,8101.11 3153,8096.61 3153,8092.01C3153,8082.61 3156.15,8074.75 3162.45,8068.45C3168.75,8062.15 3176.61,8059 3186.01,8059C3191.21,8059 3196.16,8060.1 3200.86,8062.3C3205.56,8064.5 3209.61,8067.6 3213.01,8071.6C3216.41,8067.6 3220.47,8064.5 3225.17,8062.3C3229.87,8060.1 3234.82,8059 3240.02,8059C3249.42,8059 3257.27,8062.15 3263.57,8068.45C3269.88,8074.75 3273.03,8082.61 3273.03,8092.01C3273.03,8096.61 3272.25,8101.11 3270.7,8105.51C3269.15,8109.91 3266.43,8114.74 3262.52,8119.99C3258.62,8125.24 3253.37,8131.17 3246.77,8137.77C3240.17,8144.37 3231.82,8152.22 3221.72,8161.32L3213.01,8169.12Z" style="fill:rgb(248,248,248);fill-rule:nonzero;"/>
            </g>
        </g>
    </g>
</svg>
