<?xml version="1.0" encoding="UTF-8" standalone="no"?>
<!DOCTYPE svg PUBLIC "-//W3C//DTD SVG 1.1//EN" "http://www.w3.org/Graphics/SVG/1.1/DTD/svg11.dtd">
<svg width="100%" height="100%" viewBox="0 0 1080 1080" version="1.1" xmlns="http://www.w3.org/2000/svg" xmlns:xlink="http://www.w3.org/1999/xlink" xml:space="preserve" xmlns:serif="http://www.serif.com/" style="fill-rule:evenodd;clip-rule:evenodd;stroke-linecap:round;stroke-linejoin:round;stroke-miterlimit:1.5;">
    <g transform="matrix(1,0,0,1,-5101,0)">
        <g id="logo" transform="matrix(1,0,0,1,5101,0)">
            <rect x="0" y="0" width="1080" height="1080" style="fill:none;"/>
            <g transform="matrix(1.13242,0,0,1.13242,-5390.48,449.406)">
                <circle cx="5237" cy="80" r="438" style="fill:rgb(222,222,169);"/>
                <clipPath id="_clip1">
                    <circle cx="5237" cy="80" r="438"/>
                </clipPath>
                <g clip-path="url(#_clip1)">
                    <g transform="matrix(0.883065,0,-0.0516258,0.883065,334.836,-409.299)">
                        <path d="M5868.81,990.468C5861.95,990.696 5747.48,1019.69 5634.78,1018.64C5525.77,1017.62 5418.42,986.542 5411.78,986.481C5398.26,986.357 5390.4,976.287 5390.52,962.776C5390.52,962.776 5392.12,838.073 5387.36,754.26C5385.73,725.639 5381.24,701.67 5377.5,688.868C5364.88,645.673 5346.27,614.678 5332.3,588.601C5320.61,566.797 5312.65,547.538 5311.56,528.674C5309.41,491.418 5314.22,469.408 5331.94,439.513C5347.58,413.145 5366.23,391.649 5401.79,382.32C5411.94,379.654 5420.57,378.107 5427.65,377.24C5426.17,360.821 5426.77,340.828 5438.49,323.832C5458.16,295.303 5464.85,292.867 5479.77,285.306C5487.56,281.362 5508.27,278.672 5538.78,281.232C5569.13,283.779 5609.69,313.576 5615.8,317.686C5617.48,318.815 5636.61,293.991 5638.21,295.18C5648.65,287.428 5662.73,284.423 5682.03,280.913C5699.1,277.807 5723.4,282.057 5744.01,290.672C5793.74,311.469 5803.43,343.899 5811.14,366.291C5816.48,381.801 5815.9,392.201 5818.97,401.908C5827.01,396.553 5854.41,397.476 5867.54,399.058C5895.06,402.373 5920.91,414.428 5933.43,433.453C5950.01,458.635 5956.12,471.183 5958.39,497.665C5958.52,499.07 5958.48,500.521 5958.48,502.007C5958.48,517.078 5946.86,553.683 5930.93,586.651C5917.06,615.347 5912.38,636.442 5904.11,660.088C5896.81,680.941 5890.15,715.057 5889.36,726.659C5888.48,739.655 5893.45,856.662 5895.48,879.472C5896.96,896.193 5905.64,968.188 5905.64,968.188C5906.09,981.692 5882.32,990.02 5868.81,990.468Z" style="fill:rgb(188,184,130);"/>
                    </g>
                    <g transform="matrix(0.883065,0,0,0.883065,255.633,-396.855)">
                        <path d="M5868.81,990.468C5861.95,990.696 5753.69,1048.69 5641,1047.64C5531.98,1046.62 5418.42,986.542 5411.78,986.481C5398.26,986.357 5390.4,976.287 5390.52,962.776C5390.52,962.776 5392.12,838.073 5387.36,754.26C5385.73,725.639 5381.24,701.67 5377.5,688.868C5364.88,645.673 5346.27,614.678 5332.3,588.601C5320.61,566.797 5312.65,547.538 5311.56,528.674C5309.41,491.418 5314.22,469.408 5331.94,439.513C5347.58,413.145 5366.23,391.649 5401.79,382.32C5411.94,379.654 5420.57,378.107 5427.65,377.24C5431.28,362.821 5437.95,343.828 5449.78,328.832C5471.23,301.656 5481.01,295.72 5495.94,288.16C5503.73,284.215 5534.7,270.661 5565.19,271.232C5594.43,271.779 5627.05,285.576 5633.16,289.686C5634.84,290.815 5636.49,291.991 5638.1,293.18C5648.53,285.428 5663.32,277.423 5682.62,273.913C5699.69,270.807 5730.23,270.923 5751.43,277.672C5794.76,291.469 5814.85,316.899 5826.5,338.291C5834.4,352.799 5839.32,365.201 5842.39,374.908C5851.78,375.553 5863.24,377.476 5875.55,382.058C5901.84,391.852 5924.5,407.428 5937.02,426.453C5953.6,451.635 5956.12,471.183 5958.39,497.665C5958.52,499.07 5958.48,500.521 5958.48,502.007C5958.48,517.078 5948.97,555.683 5933.04,588.651C5919.18,617.347 5912.38,636.442 5904.11,660.088C5896.81,680.941 5892.21,699.057 5891.43,710.659C5890.54,723.655 5890.8,862.662 5890.48,879.472C5890.16,896.15 5888.47,965.188 5888.47,965.188C5888.92,978.692 5882.32,990.02 5868.81,990.468Z" style="fill:rgb(248,248,248);"/>
                    </g>
                    <g transform="matrix(0.883065,0,0,0.883065,255.633,-396.855)">
                        <path d="M5912.52,501.993C5912.52,501.795 5913.03,489.142 5906.74,471.5C5904.04,463.908 5899.26,455.392 5893.98,446.547C5887.5,435.687 5873.06,429.38 5858.45,423.942C5841.62,417.674 5838.71,419.423 5829.81,419.004C5822.24,418.647 5805.11,421.429 5805.11,421.429C5805.11,421.429 5803.22,404.388 5800.57,396.583C5796.97,385.963 5796.94,382.386 5783.5,357.709C5776.12,344.164 5761.01,328.064 5733.57,319.328C5719.65,314.897 5699.59,315.047 5688.38,317.087C5666.82,321.008 5662.32,329.475 5653.95,334.192C5647.98,337.551 5636.12,352.39 5636.12,352.39C5636.12,352.39 5627.68,338.77 5621.8,335.424C5615.92,332.078 5609.95,325.693 5602.84,323.314C5593.25,320.108 5581.5,316.51 5564.28,316.187C5543.89,315.806 5523.27,325.203 5518.06,327.84C5508.13,332.871 5501.49,338.082 5487.22,356.168C5473.38,373.696 5470.11,388.057 5468.39,399.154C5467.19,406.852 5466.2,420.19 5466.2,420.19C5466.2,420.19 5451.03,419.313 5443.52,419.233C5434.62,419.138 5433.32,421.403 5413.21,426.68C5391.62,432.345 5380.55,449.478 5371.06,465.487C5358.88,486.033 5355.97,501.249 5357.44,526.855C5358.17,539.457 5362.64,552.904 5370.45,567.469C5385.71,595.942 5406.72,629.969 5420.5,677.132C5435.97,730.061 5436.48,962.224 5436.48,962.224C5436.42,968.44 5436.05,993.096 5432.19,997.381C5427.65,1002.41 5409.07,999.548 5401.78,999.481C5388.26,999.357 5390.4,976.287 5390.52,962.776C5390.52,962.776 5392.12,838.073 5387.36,754.26C5385.73,725.639 5381.24,701.67 5377.5,688.868C5364.88,645.673 5346.27,614.678 5332.3,588.601C5320.61,566.797 5312.65,547.538 5311.56,528.674C5309.41,491.418 5314.22,469.408 5331.94,439.513C5347.58,413.145 5366.23,391.649 5401.79,382.32C5411.94,379.654 5420.57,378.107 5427.65,377.24C5431.28,362.821 5437.95,343.828 5449.78,328.832C5471.23,301.656 5481.01,295.72 5495.94,288.16C5503.73,284.215 5534.7,270.661 5565.19,271.232C5594.43,271.779 5627.05,285.576 5633.16,289.686C5634.84,290.815 5636.49,291.991 5638.1,293.18C5648.53,285.428 5663.32,277.423 5682.62,273.913C5699.69,270.807 5730.23,270.923 5751.43,277.672C5794.76,291.469 5814.85,316.899 5826.5,338.291C5834.4,352.799 5839.32,365.201 5842.39,374.908C5851.78,375.553 5863.24,377.476 5875.55,382.058C5901.84,391.852 5924.5,407.428 5937.02,426.453C5953.6,451.635 5956.12,471.183 5958.39,497.665C5958.52,499.07 5958.48,500.521 5958.48,502.007C5958.48,517.078 5948.97,555.683 5933.04,588.651C5919.18,617.347 5912.38,636.442 5904.11,660.088C5896.81,680.941 5892.21,699.057 5891.43,710.659C5890.54,723.655 5890.8,862.662 5890.48,879.472C5890.16,896.15 5888.47,965.188 5888.47,965.188C5888.92,978.692 5891.32,1004.13 5877.81,1004.57C5870.84,1004.81 5852.44,1005.98 5847.83,1001.44C5843.51,997.191 5843.75,973.341 5843.53,966.812C5843.53,966.812 5844.19,895.706 5844.52,878.528C5844.85,861.482 5845.68,718.52 5846.57,705.341C5847.56,690.767 5851.72,671.11 5860.89,644.912C5869.77,619.555 5878.09,600.121 5892.96,569.349C5898.73,557.405 5903.9,545.36 5907.73,533.741C5911.93,521.004 5912.52,507.979 5912.52,501.993Z" style="fill:rgb(86,51,94);"/>
                    </g>
                    <g transform="matrix(0.792977,0,0,0.792977,763.476,-339.191)">
                        <path d="M5641.76,510.284C5662.46,511.34 5678.91,514.606 5703.68,535.544C5723.26,552.089 5734.6,576.684 5739.39,585.158C5748.24,600.813 5754.18,603.108 5764.24,617.335C5782.74,643.467 5792.97,663.579 5793.99,687.362C5795.13,714.204 5777.94,753.695 5742.26,761.641C5712.03,768.374 5687.9,769.069 5670.17,766.888C5662.65,765.963 5656.69,763.979 5650.73,762.219C5645.05,760.546 5639.34,759.242 5630.15,761.549C5607.61,767.205 5587.56,769.856 5571.13,769.999C5560.65,770.091 5543.02,768.284 5528.26,763.259C5516.01,759.09 5505.81,752.442 5500.43,744.188C5489.41,727.272 5485.56,730.118 5481.16,700.182C5476.7,669.866 5492.3,646.453 5496.72,638.035C5500.76,630.329 5522.19,603.715 5529.72,595.117C5536.58,587.278 5549.16,564.815 5554.99,557.018C5561.58,548.195 5586.73,527.303 5593.49,522.65C5601.07,517.423 5619.13,509.129 5641.76,510.284Z" style="fill:rgb(212,169,222);"/>
                        <clipPath id="_clip2">
                            <path d="M5641.76,510.284C5662.46,511.34 5678.91,514.606 5703.68,535.544C5723.26,552.089 5734.6,576.684 5739.39,585.158C5748.24,600.813 5754.18,603.108 5764.24,617.335C5782.74,643.467 5792.97,663.579 5793.99,687.362C5795.13,714.204 5777.94,753.695 5742.26,761.641C5712.03,768.374 5687.9,769.069 5670.17,766.888C5662.65,765.963 5656.69,763.979 5650.73,762.219C5645.05,760.546 5639.34,759.242 5630.15,761.549C5607.61,767.205 5587.56,769.856 5571.13,769.999C5560.65,770.091 5543.02,768.284 5528.26,763.259C5516.01,759.09 5505.81,752.442 5500.43,744.188C5489.41,727.272 5485.56,730.118 5481.16,700.182C5476.7,669.866 5492.3,646.453 5496.72,638.035C5500.76,630.329 5522.19,603.715 5529.72,595.117C5536.58,587.278 5549.16,564.815 5554.99,557.018C5561.58,548.195 5586.73,527.303 5593.49,522.65C5601.07,517.423 5619.13,509.129 5641.76,510.284Z"/>
                        </clipPath>
                        <g clip-path="url(#_clip2)">
                            <g transform="matrix(1.11361,-2.4727e-16,0,1.11361,-640.426,-72.7186)">
                                <path d="M5727,610C5731.28,617.477 5731.2,620.64 5736,634C5740.25,645.82 5743.1,655.768 5742,666C5740.35,681.455 5733.65,695.557 5719,703C5710.07,707.538 5697.13,713.182 5685,714C5670.84,714.954 5668.47,713.873 5655,710C5641.53,706.127 5629.41,707.804 5622.68,709C5615.95,710.196 5600.02,713.287 5591,714C5581.98,714.713 5572.5,715.011 5560,714C5547.5,712.989 5542.71,711.786 5533,708C5525.37,705.024 5519.36,701.389 5517,698C5512.24,691.155 5511.49,686.078 5511.86,678C5512.2,670.457 5508.28,663.352 5511.86,653C5515.44,642.648 5501.53,642.457 5499,656C5496.47,669.543 5494.77,697.011 5497,705C5499.23,712.989 5513.32,739.289 5518,742C5522.68,744.711 5556.29,751.358 5565,752C5573.71,752.642 5611.67,747.91 5622,747C5632.33,746.09 5675.54,749.358 5686,751C5696.46,752.642 5732.16,756.806 5740,753C5747.84,749.194 5766.03,737.632 5769,726C5771.97,714.368 5775.68,689.077 5774,675C5772.32,660.923 5757.75,632.868 5754,625C5750.25,617.132 5742.58,597.733 5739,596.571C5735.42,595.41 5722.72,602.523 5727,610Z" style="fill:rgb(221,199,226);"/>
                            </g>
                        </g>
                    </g>
                    <g transform="matrix(0.883065,0,0,0.883065,255.633,-396.855)">
                        <path d="M5641.76,510.284C5662.46,511.34 5678.91,514.606 5703.68,535.544C5723.26,552.089 5734.6,576.684 5739.39,585.158C5748.24,600.813 5754.18,603.108 5764.24,617.335C5782.74,643.467 5792.97,663.579 5793.99,687.362C5795.13,714.204 5777.94,753.695 5742.26,761.641C5712.03,768.374 5687.9,769.069 5670.17,766.888C5662.65,765.963 5656.69,763.979 5650.73,762.219C5645.05,760.546 5639.34,759.242 5630.15,761.549C5607.61,767.205 5587.56,769.856 5571.13,769.999C5560.65,770.091 5543.02,768.284 5528.26,763.259C5516.01,759.09 5505.81,752.442 5500.43,744.188C5489.41,727.272 5485.56,730.118 5481.16,700.182C5476.7,669.866 5492.3,646.453 5496.72,638.035C5500.76,630.329 5522.19,603.715 5529.72,595.117C5536.58,587.278 5549.16,564.815 5554.99,557.018C5561.58,548.195 5586.73,527.303 5593.49,522.65C5601.07,517.423 5619.13,509.129 5641.76,510.284ZM5640.24,540.245C5626.36,539.537 5615.16,544.145 5610.51,547.35C5605.03,551.129 5584.37,567.818 5579.01,574.982C5572.89,583.172 5559.5,606.648 5552.28,614.883C5545.74,622.359 5526.8,645.264 5523.28,651.965C5520.15,657.955 5507.67,674.247 5510.84,695.818C5514.07,717.766 5517.49,715.41 5525.57,727.812C5527.84,731.293 5532.76,733.101 5537.93,734.86C5549.27,738.72 5562.81,740.071 5570.87,740.001C5585.34,739.874 5602.99,737.434 5622.85,732.451C5636.6,729.002 5646.01,730.036 5654.65,732.19C5660.75,733.712 5666.29,736.184 5673.83,737.112C5689.06,738.986 5709.78,738.142 5735.74,732.359C5756.26,727.788 5764.67,704.079 5764.01,688.638C5763.23,670.141 5754.14,654.991 5739.76,634.665C5728.94,619.382 5722.79,616.746 5713.28,599.928C5709.31,592.916 5700.52,572.147 5684.32,558.456C5666.65,543.523 5655,540.999 5640.24,540.245Z" style="fill:rgb(86,51,94);"/>
                    </g>
                    <g transform="matrix(0.73042,-0.452374,0.386717,0.624409,952.034,2226.65)">
                        <ellipse cx="5403" cy="468" rx="43.452" ry="76.889" style="fill:rgb(248,248,248);fill-opacity:0;"/>
                        <clipPath id="_clip3">
                            <ellipse cx="5403" cy="468" rx="43.452" ry="76.889"/>
                        </clipPath>
                        <g clip-path="url(#_clip3)">
                            <ellipse cx="5403" cy="468" rx="43.452" ry="76.889" style="fill:rgb(212,169,222);"/>
                            <clipPath id="_clip4">
                                <ellipse cx="5403" cy="468" rx="43.452" ry="76.889"/>
                            </clipPath>
                            <g clip-path="url(#_clip4)">
                                <g transform="matrix(0.964412,-0.415775,0.355431,1.12815,-397.875,2291.25)">
                                    <path d="M5840,488C5840.55,501.246 5842.26,511.595 5830.25,536.832C5821.31,555.61 5801.37,567.638 5790,567.667C5785.94,567.678 5776.49,565.536 5768.52,562.497C5764.84,561.089 5781,580 5781,580C5781,580 5807.66,589.698 5810,588.634C5812.34,587.571 5844.45,574.05 5847,570C5849.55,565.95 5859.77,537.055 5861,533C5862.23,528.945 5870.44,495.386 5868,492C5865.56,488.614 5853,469.366 5853,469.366C5853,469.366 5815.81,468.043 5829.38,474.455C5832.66,476.008 5839.79,482.871 5840,488Z" style="fill:rgb(221,199,226);"/>
                                </g>
                            </g>
                        </g>
                        <ellipse cx="5403" cy="468" rx="43.452" ry="76.889" style="fill:none;stroke:rgb(86,51,94);stroke-width:33.15px;"/>
                    </g>
                    <g transform="matrix(0.834154,-0.205776,0.17591,0.713087,584.709,761.827)">
                        <ellipse cx="5403" cy="468" rx="43.452" ry="76.889" style="fill:rgb(248,248,248);fill-opacity:0;"/>
                        <clipPath id="_clip5">
                            <ellipse cx="5403" cy="468" rx="43.452" ry="76.889"/>
                        </clipPath>
                        <g clip-path="url(#_clip5)">
                            <ellipse cx="5403" cy="468" rx="43.452" ry="76.889" style="fill:rgb(212,169,222);"/>
                            <clipPath id="_clip6">
                                <ellipse cx="5403" cy="468" rx="43.452" ry="76.889"/>
                            </clipPath>
                            <g clip-path="url(#_clip6)">
                                <g transform="matrix(0.940959,-0.483752,0.455542,1.2125,-313.438,2643.2)">
                                    <path d="M5840,488C5840.55,501.246 5843.59,508.608 5835.97,527.101C5831.98,536.798 5817.86,555.123 5804.39,553.667C5782.54,551.307 5781.07,537.807 5768.72,519.103C5766.66,515.988 5759.13,526.915 5769.79,551.548C5769.79,551.548 5779.19,580.116 5781.53,579.052C5783.87,577.989 5832.49,585.173 5835.05,581.123C5837.6,577.073 5859.77,537.055 5861,533C5862.23,528.945 5870.44,495.386 5868,492C5865.56,488.614 5853,469.366 5853,469.366C5853,469.366 5815.81,468.043 5829.38,474.455C5832.66,476.008 5839.79,482.871 5840,488Z" style="fill:rgb(221,199,226);"/>
                                </g>
                            </g>
                        </g>
                        <ellipse cx="5403" cy="468" rx="43.452" ry="76.889" style="fill:none;stroke:rgb(86,51,94);stroke-width:33.15px;"/>
                    </g>
                    <g transform="matrix(0.836181,0.197376,-0.16873,0.71482,858.676,-1417.29)">
                        <ellipse cx="5403" cy="468" rx="43.452" ry="76.889" style="fill:rgb(248,248,248);fill-opacity:0;"/>
                        <clipPath id="_clip7">
                            <ellipse cx="5403" cy="468" rx="43.452" ry="76.889"/>
                        </clipPath>
                        <g clip-path="url(#_clip7)">
                            <ellipse cx="5403" cy="468" rx="43.452" ry="76.889" style="fill:rgb(212,169,222);"/>
                            <clipPath id="_clip8">
                                <ellipse cx="5403" cy="468" rx="43.452" ry="76.889"/>
                            </clipPath>
                            <g clip-path="url(#_clip8)">
                                <g transform="matrix(0.953926,-0.447652,0.382681,1.11588,-350.604,2477.93)">
                                    <path d="M5839.01,487.851C5839.56,501.097 5841.12,512.435 5829.11,537.671C5820.17,556.45 5804.64,566.108 5790.44,564.701C5786.41,564.301 5776.49,565.536 5768.52,562.497C5764.84,561.089 5781,580 5781,580C5781,580 5807.66,589.698 5810,588.634C5812.34,587.571 5844.45,574.05 5847,570C5849.55,565.95 5859.77,537.055 5861,533C5862.23,528.945 5870.44,495.386 5868,492C5865.56,488.614 5853,469.366 5853,469.366C5853,469.366 5815.81,468.043 5829.38,474.455C5832.66,476.008 5838.8,482.722 5839.01,487.851Z" style="fill:rgb(221,199,226);"/>
                                </g>
                            </g>
                        </g>
                        <ellipse cx="5403" cy="468" rx="43.452" ry="76.889" style="fill:none;stroke:rgb(86,51,94);stroke-width:33.15px;"/>
                    </g>
                    <g transform="matrix(0.75281,0.414045,-0.353952,0.643549,1490.38,-2467.98)">
                        <ellipse cx="5403" cy="468" rx="43.452" ry="76.889" style="fill:rgb(248,248,248);fill-opacity:0;"/>
                        <clipPath id="_clip9">
                            <ellipse cx="5403" cy="468" rx="43.452" ry="76.889"/>
                        </clipPath>
                        <g clip-path="url(#_clip9)">
                            <ellipse cx="5403" cy="468" rx="43.452" ry="76.889" style="fill:rgb(212,169,222);"/>
                            <clipPath id="_clip10">
                                <ellipse cx="5403" cy="468" rx="43.452" ry="76.889"/>
                            </clipPath>
                            <g clip-path="url(#_clip10)">
                                <g transform="matrix(0.900595,-0.579423,0.495327,1.0535,-97.5225,3281.03)">
                                    <path d="M5840,488C5840.55,501.246 5842.26,511.595 5830.25,536.832C5821.31,555.61 5801.37,567.638 5790,567.667C5785.94,567.678 5776.49,565.536 5768.52,562.497C5764.84,561.089 5781,580 5781,580C5781,580 5807.66,589.698 5810,588.634C5812.34,587.571 5844.45,574.05 5847,570C5849.55,565.95 5859.77,537.055 5861,533C5862.23,528.945 5870.44,495.386 5868,492C5865.56,488.614 5853,469.366 5853,469.366C5853,469.366 5815.81,468.043 5829.38,474.455C5832.66,476.008 5839.79,482.871 5840,488Z" style="fill:rgb(221,199,226);"/>
                                </g>
                            </g>
                        </g>
                        <ellipse cx="5403" cy="468" rx="43.452" ry="76.889" style="fill:none;stroke:rgb(86,51,94);stroke-width:33.15px;"/>
                    </g>
                </g>
            </g>
        </g>
    </g>
</svg>
