<?xml version="1.0" encoding="UTF-8" standalone="no"?>
<!DOCTYPE svg PUBLIC "-//W3C//DTD SVG 1.1//EN" "http://www.w3.org/Graphics/SVG/1.1/DTD/svg11.dtd">
<svg width="100%" height="100%" viewBox="0 0 1080 1080" version="1.1" xmlns="http://www.w3.org/2000/svg" xmlns:xlink="http://www.w3.org/1999/xlink" xml:space="preserve" xmlns:serif="http://www.serif.com/" style="fill-rule:evenodd;clip-rule:evenodd;stroke-linejoin:round;stroke-miterlimit:2;">
    <g transform="matrix(1,0,0,1,-1326,0)">
        <g id="paw" transform="matrix(1,0,0,1,1326,0)">
            <rect x="0" y="0" width="1080" height="1080" style="fill:none;"/>
            <g transform="matrix(13.001,0,0,13.001,-33405.7,-94099.7)">
                <path d="M2582.25,7277.48C2579.57,7277.48 2577.3,7276.55 2575.45,7274.7C2573.59,7272.85 2572.67,7270.58 2572.67,7267.9C2572.67,7265.21 2573.59,7262.94 2575.45,7261.09C2577.3,7259.24 2579.57,7258.31 2582.25,7258.31C2584.93,7258.31 2587.2,7259.24 2589.05,7261.09C2590.91,7262.94 2591.83,7265.21 2591.83,7267.9C2591.83,7270.58 2590.91,7272.85 2589.05,7274.7C2587.2,7276.55 2584.93,7277.48 2582.25,7277.48ZM2599.5,7262.15C2596.82,7262.15 2594.55,7261.22 2592.7,7259.37C2590.84,7257.51 2589.92,7255.25 2589.92,7252.56C2589.92,7249.88 2590.84,7247.61 2592.7,7245.76C2594.55,7243.91 2596.82,7242.98 2599.5,7242.98C2602.18,7242.98 2604.45,7243.91 2606.3,7245.76C2608.16,7247.61 2609.08,7249.88 2609.08,7252.56C2609.08,7255.25 2608.16,7257.51 2606.3,7259.37C2604.45,7261.22 2602.18,7262.15 2599.5,7262.15ZM2622.5,7262.15C2619.82,7262.15 2617.55,7261.22 2615.7,7259.37C2613.84,7257.51 2612.92,7255.25 2612.92,7252.56C2612.92,7249.88 2613.84,7247.61 2615.7,7245.76C2617.55,7243.91 2619.82,7242.98 2622.5,7242.98C2625.18,7242.98 2627.45,7243.91 2629.3,7245.76C2631.16,7247.61 2632.08,7249.88 2632.08,7252.56C2632.08,7255.25 2631.16,7257.51 2629.3,7259.37C2627.45,7261.22 2625.18,7262.15 2622.5,7262.15ZM2639.75,7277.48C2637.07,7277.48 2634.8,7276.55 2632.95,7274.7C2631.09,7272.85 2630.17,7270.58 2630.17,7267.9C2630.17,7265.21 2631.09,7262.94 2632.95,7261.09C2634.8,7259.24 2637.07,7258.31 2639.75,7258.31C2642.43,7258.31 2644.7,7259.24 2646.55,7261.09C2648.41,7262.94 2649.33,7265.21 2649.33,7267.9C2649.33,7270.58 2648.41,7272.85 2646.55,7274.7C2644.7,7276.55 2642.43,7277.48 2639.75,7277.48ZM2590.49,7315.81C2587.62,7315.81 2585.2,7314.71 2583.26,7312.51C2581.31,7310.3 2580.33,7307.7 2580.33,7304.7C2580.33,7301.37 2581.47,7298.47 2583.74,7295.97C2586,7293.48 2588.26,7291.02 2590.49,7288.6C2592.34,7286.62 2593.94,7284.46 2595.28,7282.13C2596.62,7279.79 2598.22,7277.61 2600.07,7275.56C2601.48,7273.9 2603.11,7272.53 2604.96,7271.44C2606.82,7270.36 2608.83,7269.81 2611,7269.81C2613.17,7269.81 2615.18,7270.32 2617.04,7271.35C2618.89,7272.37 2620.52,7273.71 2621.92,7275.37C2623.71,7277.42 2625.3,7279.62 2626.67,7281.98C2628.04,7284.35 2629.66,7286.55 2631.51,7288.6C2633.74,7291.02 2636,7293.48 2638.26,7295.97C2640.53,7298.47 2641.67,7301.37 2641.67,7304.7C2641.67,7307.7 2640.69,7310.3 2638.74,7312.51C2636.8,7314.71 2634.38,7315.81 2631.51,7315.81C2628.06,7315.81 2624.64,7315.52 2621.25,7314.95C2617.87,7314.37 2614.45,7314.09 2611,7314.09C2607.55,7314.09 2604.13,7314.37 2600.75,7314.95C2597.36,7315.52 2593.94,7315.81 2590.49,7315.81Z" style="fill:rgb(248,248,248);fill-rule:nonzero;"/>
            </g>
        </g>
    </g>
</svg>
