<?xml version="1.0" encoding="UTF-8" standalone="no"?>
<!DOCTYPE svg PUBLIC "-//W3C//DTD SVG 1.1//EN" "http://www.w3.org/Graphics/SVG/1.1/DTD/svg11.dtd">
<svg width="100%" height="100%" viewBox="0 0 1080 1080" version="1.1" xmlns="http://www.w3.org/2000/svg" xmlns:xlink="http://www.w3.org/1999/xlink" xml:space="preserve" xmlns:serif="http://www.serif.com/" style="fill-rule:evenodd;clip-rule:evenodd;stroke-linejoin:round;stroke-miterlimit:2;">
    <g transform="matrix(1,0,0,1,-3816,0)">
        <g id="profile" transform="matrix(1,0,0,1,3816,0)">
            <rect x="0" y="0" width="1080" height="1080" style="fill:none;"/>
            <g transform="matrix(8.25974,0,0,8.25974,-27365.5,-66475.4)">
                <path d="M3340.32,8145.16C3345.6,8141.13 3351.49,8137.95 3358.01,8135.62C3364.53,8133.29 3371.36,8132.12 3378.5,8132.12C3385.64,8132.12 3392.47,8133.29 3398.99,8135.62C3405.51,8137.95 3411.4,8141.13 3416.68,8145.16C3420.3,8140.92 3423.12,8136.11 3425.14,8130.73C3427.16,8125.35 3428.17,8119.6 3428.17,8113.5C3428.17,8099.74 3423.33,8088.02 3413.65,8078.35C3403.98,8068.67 3392.26,8063.83 3378.5,8063.83C3364.74,8063.83 3353.02,8068.67 3343.35,8078.35C3333.67,8088.02 3328.83,8099.74 3328.83,8113.5C3328.83,8119.6 3329.84,8125.35 3331.86,8130.73C3333.88,8136.11 3336.7,8140.92 3340.32,8145.16ZM3378.5,8119.71C3372.4,8119.71 3367.25,8117.61 3363.06,8113.42C3358.87,8109.23 3356.77,8104.08 3356.77,8097.98C3356.77,8091.87 3358.87,8086.73 3363.06,8082.54C3367.25,8078.35 3372.4,8076.25 3378.5,8076.25C3384.6,8076.25 3389.75,8078.35 3393.94,8082.54C3398.13,8086.73 3400.23,8091.87 3400.23,8097.98C3400.23,8104.08 3398.13,8109.23 3393.94,8113.42C3389.75,8117.61 3384.6,8119.71 3378.5,8119.71ZM3378.5,8175.58C3369.91,8175.58 3361.84,8173.95 3354.29,8170.69C3346.73,8167.43 3340.16,8163.01 3334.58,8157.42C3328.99,8151.84 3324.57,8145.27 3321.31,8137.71C3318.05,8130.16 3316.42,8122.09 3316.42,8113.5C3316.42,8104.91 3318.05,8096.84 3321.31,8089.29C3324.57,8081.73 3328.99,8075.16 3334.58,8069.58C3340.16,8063.99 3346.73,8059.56 3354.29,8056.31C3361.84,8053.05 3369.91,8051.42 3378.5,8051.42C3387.09,8051.42 3395.16,8053.05 3402.71,8056.31C3410.27,8059.56 3416.84,8063.99 3422.42,8069.58C3428.01,8075.16 3432.43,8081.73 3435.69,8089.29C3438.95,8096.84 3440.58,8104.91 3440.58,8113.5C3440.58,8122.09 3438.95,8130.16 3435.69,8137.71C3432.43,8145.27 3428.01,8151.84 3422.42,8157.42C3416.84,8163.01 3410.27,8167.43 3402.71,8170.69C3395.16,8173.95 3387.09,8175.58 3378.5,8175.58ZM3378.5,8163.17C3383.98,8163.17 3389.16,8162.36 3394.02,8160.76C3398.88,8159.16 3403.33,8156.85 3407.37,8153.85C3403.33,8150.85 3398.88,8148.55 3394.02,8146.95C3389.16,8145.34 3383.98,8144.54 3378.5,8144.54C3373.02,8144.54 3367.84,8145.34 3362.98,8146.95C3358.12,8148.55 3353.67,8150.85 3349.63,8153.85C3353.67,8156.85 3358.12,8159.16 3362.98,8160.76C3367.84,8162.36 3373.02,8163.17 3378.5,8163.17ZM3378.5,8107.29C3381.19,8107.29 3383.42,8106.41 3385.17,8104.65C3386.93,8102.89 3387.81,8100.67 3387.81,8097.98C3387.81,8095.29 3386.93,8093.06 3385.17,8091.31C3383.42,8089.55 3381.19,8088.67 3378.5,8088.67C3375.81,8088.67 3373.59,8089.55 3371.83,8091.31C3370.07,8093.06 3369.19,8095.29 3369.19,8097.98C3369.19,8100.67 3370.07,8102.89 3371.83,8104.65C3373.59,8106.41 3375.81,8107.29 3378.5,8107.29Z" style="fill:rgb(248,248,248);fill-rule:nonzero;"/>
            </g>
        </g>
    </g>
</svg>
