<?xml version="1.0" encoding="UTF-8" standalone="no"?>
<!DOCTYPE svg PUBLIC "-//W3C//DTD SVG 1.1//EN" "http://www.w3.org/Graphics/SVG/1.1/DTD/svg11.dtd">
<svg width="100%" height="100%" viewBox="0 0 1080 1080" version="1.1" xmlns="http://www.w3.org/2000/svg" xmlns:xlink="http://www.w3.org/1999/xlink" xml:space="preserve" xmlns:serif="http://www.serif.com/" style="fill-rule:evenodd;clip-rule:evenodd;stroke-linejoin:round;stroke-miterlimit:2;">
    <rect id="send" x="0" y="0" width="1080" height="1080" style="fill:none;"/>
    <g id="send1" serif:id="send">
        <g id="iocn" transform="matrix(1.23911,-0.715399,0.715399,1.23911,-130.774,218.93)">
            <path d="M108.275,79.21L710.312,367.14C728.107,375.651 735.633,396.974 727.122,414.769C723.603,422.127 717.671,428.059 710.312,431.579L108.275,719.509C90.481,728.02 69.157,720.493 60.647,702.699C56.949,694.967 56.155,686.162 58.41,677.893L118.626,457.095C120.135,451.564 124.804,447.47 130.486,446.698L422.217,407.071C424.731,406.712 426.814,405.06 427.777,402.804L428.278,401.01C428.756,397.663 426.831,394.526 423.811,393.347L422.217,392.929L130.827,353.303C125.146,352.53 120.478,348.437 118.969,342.906L58.41,120.826C53.22,101.796 64.44,82.163 83.469,76.973C91.738,74.718 100.543,75.511 108.275,79.21Z" style="fill:rgb(248,248,248);fill-rule:nonzero;"/>
        </g>
    </g>
</svg>
