<?xml version="1.0" encoding="UTF-8" standalone="no"?>
<!DOCTYPE svg PUBLIC "-//W3C//DTD SVG 1.1//EN" "http://www.w3.org/Graphics/SVG/1.1/DTD/svg11.dtd">
<svg width="100%" height="100%" viewBox="0 0 1080 1080" version="1.1" xmlns="http://www.w3.org/2000/svg" xmlns:xlink="http://www.w3.org/1999/xlink" xml:space="preserve" xmlns:serif="http://www.serif.com/" style="fill-rule:evenodd;clip-rule:evenodd;stroke-linejoin:round;stroke-miterlimit:2;">
    <g transform="matrix(1,0,0,1,-1316,0)">
        <g id="settings" transform="matrix(1,0,0,1,1316,0)">
            <rect x="0" y="0" width="1080" height="1080" style="fill:none;"/>
            <g transform="matrix(8.98327,0,0,8.98327,-26719.7,-72345.7)">
                <path d="M3018.8,8170.58L3016.52,8152.32C3015.28,8151.84 3014.12,8151.27 3013.02,8150.6C3011.93,8149.94 3010.86,8149.22 3009.81,8148.46L2992.83,8155.6L2977.13,8128.48L2991.83,8117.35C2991.74,8116.69 2991.69,8116.04 2991.69,8115.43L2991.69,8111.57C2991.69,8110.95 2991.74,8110.31 2991.83,8109.65L2977.13,8098.52L2992.83,8071.4L3009.81,8078.54C3010.86,8077.78 3011.95,8077.06 3013.09,8076.4C3014.24,8075.73 3015.38,8075.16 3016.52,8074.68L3018.8,8056.42L3050.2,8056.42L3052.48,8074.68C3053.72,8075.16 3054.88,8075.73 3055.98,8076.4C3057.07,8077.06 3058.14,8077.78 3059.19,8078.54L3076.17,8071.4L3091.87,8098.52L3077.17,8109.65C3077.26,8110.31 3077.31,8110.95 3077.31,8111.57L3077.31,8115.43C3077.31,8116.04 3077.22,8116.69 3077.03,8117.35L3091.73,8128.48L3076.03,8155.6L3059.19,8148.46C3058.14,8149.22 3057.05,8149.94 3055.91,8150.6C3054.76,8151.27 3053.62,8151.84 3052.48,8152.32L3050.2,8170.58L3018.8,8170.58ZM3028.79,8159.17L3040.07,8159.17L3042.06,8144.04C3045.01,8143.28 3047.75,8142.16 3050.27,8140.69C3052.79,8139.21 3055.1,8137.43 3057.19,8135.33L3071.32,8141.19L3076.88,8131.48L3064.61,8122.21C3065.09,8120.87 3065.42,8119.47 3065.61,8118C3065.8,8116.52 3065.9,8115.02 3065.9,8113.5C3065.9,8111.98 3065.8,8110.48 3065.61,8109C3065.42,8107.53 3065.09,8106.13 3064.61,8104.79L3076.88,8095.52L3071.32,8085.81L3057.19,8091.81C3055.1,8089.62 3052.79,8087.79 3050.27,8086.31C3047.75,8084.84 3045.01,8083.72 3042.06,8082.96L3040.21,8067.83L3028.93,8067.83L3026.94,8082.96C3023.99,8083.72 3021.25,8084.84 3018.73,8086.31C3016.21,8087.79 3013.9,8089.57 3011.81,8091.67L2997.68,8085.81L2992.12,8095.52L3004.39,8104.65C3003.91,8106.08 3003.58,8107.51 3003.39,8108.93C3003.2,8110.36 3003.1,8111.88 3003.1,8113.5C3003.1,8115.02 3003.2,8116.5 3003.39,8117.92C3003.58,8119.35 3003.91,8120.78 3004.39,8122.21L2992.12,8131.48L2997.68,8141.19L3011.81,8135.19C3013.9,8137.38 3016.21,8139.21 3018.73,8140.69C3021.25,8142.16 3023.99,8143.28 3026.94,8144.04L3028.79,8159.17ZM3034.79,8133.48C3040.3,8133.48 3045.01,8131.53 3048.91,8127.63C3052.81,8123.73 3054.76,8119.02 3054.76,8113.5C3054.76,8107.98 3052.81,8103.27 3048.91,8099.37C3045.01,8095.47 3040.3,8093.52 3034.79,8093.52C3029.17,8093.52 3024.44,8095.47 3020.59,8099.37C3016.73,8103.27 3014.81,8107.98 3014.81,8113.5C3014.81,8119.02 3016.73,8123.73 3020.59,8127.63C3024.44,8131.53 3029.17,8133.48 3034.79,8133.48Z" style="fill:rgb(248,248,248);fill-rule:nonzero;"/>
            </g>
        </g>
    </g>
</svg>
